<?xml version="1.0" standalone="no"?>
<!DOCTYPE svg PUBLIC "-//W3C//DTD SVG 20010904//EN"
 "http://www.w3.org/TR/2001/REC-SVG-20010904/DTD/svg10.dtd">
<svg version="1.0" xmlns="http://www.w3.org/2000/svg"
 width="1895.000000pt" height="1895.000000pt" viewBox="0 0 1895.000000 1895.000000"
 preserveAspectRatio="xMidYMid meet">
<metadata>
Created by potrace 1.11, written by Peter Selinger 2001-2013
</metadata>
<g transform="translate(0.000000,1895.000000) scale(0.100000,-0.100000)"
fill="#000000" stroke="none">
<path d="M9079 18926 c-2 -2 -68 -7 -146 -10 -78 -4 -153 -9 -165 -11 -13 -2
-61 -6 -108 -9 -47 -4 -101 -8 -120 -11 -19 -2 -60 -6 -90 -9 -54 -6 -190 -23
-240 -31 -14 -2 -45 -7 -70 -10 -25 -3 -70 -10 -100 -15 -30 -5 -66 -11 -80
-13 -127 -21 -176 -31 -183 -37 -13 -11 92 -239 184 -400 121 -212 296 -423
479 -577 29 -24 224 -173 388 -296 136 -102 268 -250 307 -342 34 -84 13 -171
-53 -215 -55 -37 -123 -49 -247 -45 -122 3 -161 8 -250 31 -122 32 -194 40
-299 32 -88 -6 -113 -10 -159 -24 -38 -10 -270 -95 -302 -109 -60 -27 -231
-85 -310 -104 -126 -32 -132 -33 -275 -36 -130 -3 -158 1 -335 40 -11 3 -33 7
-48 11 l-28 6 27 -44 c38 -59 77 -142 99 -207 21 -64 17 -158 -10 -215 -80
-168 -413 -258 -690 -185 -22 6 -56 14 -75 19 -19 4 -62 16 -94 26 l-59 18
-46 -51 c-83 -91 -266 -226 -544 -402 -301 -190 -402 -301 -421 -461 -3 -25
-7 -54 -9 -65 -3 -11 -8 -51 -12 -88 -3 -37 -10 -90 -14 -117 -6 -39 -5 -50 6
-55 8 -3 18 -3 21 -1 4 2 43 7 86 11 43 4 86 8 95 10 9 1 50 6 91 10 41 3 86
8 100 10 14 2 57 6 95 10 39 4 77 8 85 10 8 2 49 6 90 9 41 4 89 8 105 10 17
2 62 7 102 11 40 4 85 9 100 11 58 9 450 12 503 3 30 -5 70 -11 87 -14 109
-17 281 -71 389 -121 189 -89 402 -270 458 -388 33 -71 41 -157 20 -225 -7
-25 -14 -49 -14 -52 0 -4 39 -19 88 -34 286 -88 437 -152 547 -230 74 -52 109
-91 143 -158 23 -44 27 -65 27 -133 0 -73 -3 -84 -28 -117 -33 -44 -83 -67
-143 -67 -24 0 -44 -4 -44 -8 0 -12 56 -90 94 -130 59 -63 176 -133 297 -177
24 -9 94 -33 154 -54 385 -134 463 -176 572 -304 140 -165 137 -324 -7 -397
-123 -63 -162 -66 -615 -60 -113 1 -131 -1 -194 -21 -46 -15 -76 -35 -126 -82
-22 -21 -69 -52 -105 -70 -61 -30 -72 -32 -175 -32 -60 0 -137 4 -170 9 -33 5
-96 10 -140 11 -119 3 -147 -17 -161 -114 -2 -20 -7 -54 -10 -75 -17 -112 -75
-166 -179 -166 -152 0 -462 176 -626 354 l-36 40 -16 -35 c-21 -44 -84 -219
-157 -438 -49 -145 -57 -177 -48 -197 6 -13 14 -24 17 -24 3 0 22 -14 41 -31
19 -17 51 -43 70 -58 19 -14 37 -28 40 -32 19 -21 106 -79 119 -79 9 0 80 18
159 40 262 74 466 165 666 300 210 140 401 246 534 296 299 113 521 103 820
-38 142 -66 207 -118 248 -199 l23 -47 63 13 c35 8 90 17 123 21 33 3 74 8 90
10 45 6 222 5 290 -1 300 -25 605 -185 691 -362 56 -114 13 -210 -157 -354
-108 -92 -189 -170 -205 -201 -22 -41 -17 -90 12 -134 14 -21 86 -100 159
-174 198 -200 247 -268 248 -344 2 -120 -114 -180 -348 -180 -81 0 -187 10
-265 23 -178 32 -229 40 -260 45 -49 7 -106 15 -165 24 -71 10 -94 5 -101 -24
-10 -39 1 -50 63 -66 32 -9 209 -59 393 -112 498 -145 537 -155 555 -156 11 0
49 28 94 69 96 87 245 151 434 185 127 24 125 23 317 42 25 2 79 7 120 10 41
3 78 8 82 10 4 2 -4 28 -17 57 -72 163 22 325 228 396 31 11 71 22 89 25 18 3
42 7 53 10 20 3 92 14 220 31 22 3 49 7 60 9 11 2 44 7 74 11 30 3 61 8 70 10
9 1 48 6 86 10 39 4 81 9 95 11 36 6 303 6 320 0 8 -2 38 -7 67 -10 48 -6 108
-20 190 -45 96 -29 223 -124 259 -193 8 -15 20 -28 26 -28 6 0 86 18 177 39
91 22 212 49 268 60 93 19 120 23 223 36 47 6 258 7 290 1 14 -2 43 -7 65 -10
33 -4 86 -16 180 -40 28 -6 132 -49 178 -72 181 -91 387 -270 590 -510 89
-107 126 -140 182 -164 42 -18 115 -34 150 -33 24 1 177 11 290 20 116 9 558
9 641 0 68 -7 85 -10 144 -22 14 -2 39 -7 55 -10 73 -12 95 -18 178 -46 48
-16 104 -39 125 -50 56 -32 106 -62 112 -69 3 -3 24 -21 48 -39 52 -40 114
-129 137 -196 23 -66 23 -176 1 -242 -31 -94 -92 -163 -216 -245 l-111 -73 23
-17 c13 -10 28 -21 33 -25 12 -10 124 -84 146 -98 35 -21 205 -139 278 -193
95 -69 229 -203 265 -265 81 -137 19 -279 -150 -346 -61 -23 -137 -39 -234
-47 -41 -3 -95 -7 -120 -10 -25 -2 -101 -6 -170 -10 -212 -9 -325 -42 -431
-125 -93 -72 -220 -179 -350 -294 -184 -163 -198 -175 -204 -175 -3 0 -16 -9
-28 -21 -54 -51 -181 -99 -270 -100 -75 -2 -118 6 -176 32 -24 10 -47 19 -51
19 -6 0 -88 -275 -94 -315 -1 -12 12 -12 119 -1 187 20 354 29 525 29 143 0
388 -11 399 -17 3 -2 38 -7 76 -10 39 -4 81 -9 95 -11 14 -3 41 -7 60 -10 430
-69 826 -228 1128 -454 112 -85 213 -188 290 -299 30 -42 96 -176 112 -226
l13 -40 17 35 c10 19 44 95 75 169 31 74 62 149 70 165 7 17 27 66 44 110 16
44 41 109 54 145 82 212 210 630 281 915 50 199 127 563 141 660 2 17 10 68
19 115 8 47 22 139 31 205 8 66 18 136 21 155 2 19 7 58 9 85 5 54 13 128 20
185 8 68 17 190 31 440 20 359 4 1055 -31 1375 -2 22 -7 72 -11 110 -3 39 -7
77 -9 85 -1 8 -6 44 -10 80 -4 36 -9 74 -11 85 -2 11 -6 40 -9 65 -3 25 -8 56
-10 70 -6 33 -11 65 -29 180 -8 52 -18 107 -21 123 -3 15 -7 38 -9 52 -3 14
-7 33 -10 43 -3 9 -7 33 -10 52 -4 29 -26 137 -41 200 -2 8 -13 56 -24 105
-127 557 -345 1205 -579 1715 -16 36 -44 97 -62 135 -98 214 -295 587 -407
770 -7 11 -16 27 -20 35 -28 57 -275 439 -378 585 -66 93 -208 289 -215 295
-3 3 -32 41 -65 85 -53 71 -280 352 -294 365 -4 3 -21 23 -40 45 -148 174
-264 298 -496 530 -189 190 -325 319 -455 431 -25 21 -47 41 -50 44 -38 38
-354 294 -465 376 -44 32 -82 61 -85 64 -5 6 -195 142 -297 213 -29 21 -57 37
-63 37 -5 0 -10 5 -10 10 0 6 -6 10 -14 10 -8 0 -16 4 -18 8 -1 4 -64 46 -138
93 -859 544 -1779 939 -2755 1183 -149 37 -347 82 -405 91 -19 3 -51 10 -70
15 -29 8 -272 50 -375 66 -16 2 -41 7 -55 9 -14 3 -79 12 -145 20 -66 9 -138
18 -160 21 -69 8 -108 13 -180 19 -38 3 -86 8 -105 10 -19 2 -75 7 -125 11
-49 3 -119 8 -155 11 -75 6 -936 14 -941 9z"/>
<path d="M3775 17025 c-366 -277 -660 -533 -989 -860 -125 -125 -183 -186
-339 -355 -218 -237 -614 -738 -752 -954 l-19 -29 30 16 c76 39 320 102 474
122 25 3 56 8 70 10 14 2 54 6 90 10 36 4 76 8 90 10 14 2 63 7 110 10 47 4
99 8 115 10 17 1 68 6 115 10 47 4 90 12 97 18 6 7 21 37 33 67 45 115 140
220 246 273 100 50 193 60 569 60 246 0 345 -6 590 -37 55 -7 115 -13 134 -12
32 1 35 4 48 51 35 123 121 374 180 525 69 175 259 573 336 703 l46 78 -23 9
c-13 5 -50 14 -83 19 -32 6 -69 13 -83 16 -14 3 -36 7 -50 9 -32 7 -80 13
-155 22 -33 3 -67 8 -76 9 -9 2 -77 6 -150 10 -241 11 -265 14 -315 31 -52 17
-129 55 -155 76 -26 21 -39 54 -47 115 l-7 57 -130 -99z"/>
<path d="M5367 16458 c-76 -182 -184 -482 -202 -566 -2 -9 -13 -47 -23 -84
-11 -38 -17 -68 -14 -68 2 0 73 41 156 92 340 207 502 312 548 356 l48 47
-112 90 c-61 50 -116 95 -122 100 -40 37 -205 165 -213 165 -6 0 -35 -60 -66
-132z"/>
<path d="M1254 14187 c-19 -40 -226 -441 -254 -492 -81 -150 -142 -276 -136
-282 12 -13 247 123 391 225 89 64 275 242 275 263 0 8 -23 27 -50 43 -71 43
-138 112 -166 174 -13 29 -24 56 -24 61 0 5 -6 13 -13 19 -9 8 -15 5 -23 -11z"/>
<path d="M3944 13225 c-26 -11 -39 -31 -83 -131 -29 -66 -67 -138 -84 -161
-38 -50 -98 -90 -146 -99 -20 -4 -39 -8 -43 -11 -9 -5 41 -97 108 -198 49 -75
165 -217 224 -275 131 -128 307 -255 443 -319 100 -48 213 -88 223 -79 3 4
-14 65 -40 135 -63 177 -131 404 -152 513 -3 13 -14 61 -24 106 -11 45 -24
110 -30 145 -5 35 -12 75 -15 89 -3 14 -7 42 -10 64 -7 54 -15 98 -21 117 -8
29 -185 98 -284 112 -20 3 -49 -1 -66 -8z"/>
<path d="M2893 13110 c-35 -8 -37 -9 -268 -120 -332 -161 -514 -231 -706 -274
-159 -35 -220 -41 -409 -40 -207 2 -341 24 -535 89 -104 35 -131 46 -228 93
-48 23 -92 42 -96 42 -30 0 -339 -962 -387 -1203 -2 -10 -5 -26 -8 -35 -3 -9
-7 -29 -10 -45 -3 -15 -7 -35 -10 -45 -3 -9 -7 -28 -10 -42 -3 -14 -19 -92
-36 -175 -17 -82 -33 -163 -36 -180 -2 -16 -7 -37 -9 -45 -4 -14 -10 -48 -21
-130 -2 -19 -8 -57 -14 -85 -5 -27 -12 -75 -16 -105 -3 -30 -8 -62 -9 -71 -3
-14 -6 -36 -20 -149 -2 -19 -7 -64 -10 -100 -3 -36 -8 -76 -10 -90 -2 -14 -7
-59 -10 -100 -3 -41 -8 -97 -10 -125 -15 -184 -20 -341 -20 -720 0 -236 4
-479 8 -540 19 -275 28 -379 42 -500 3 -22 7 -62 10 -90 3 -27 8 -66 10 -85 3
-19 8 -53 10 -75 3 -22 8 -51 10 -65 2 -14 7 -45 10 -70 8 -58 11 -77 30 -185
20 -120 22 -130 51 -275 23 -119 35 -173 69 -312 8 -35 17 -73 20 -85 70 -327
307 -1036 476 -1425 136 -316 345 -737 469 -948 16 -28 30 -52 30 -54 0 -22
409 -663 492 -771 4 -5 65 -86 134 -180 169 -227 255 -334 484 -599 179 -208
554 -586 780 -786 40 -36 78 -70 84 -75 6 -6 56 -49 111 -95 55 -47 102 -87
105 -90 23 -26 351 -278 515 -397 223 -161 754 -503 782 -503 3 0 14 -6 22
-14 9 -7 61 -37 116 -67 55 -29 136 -72 180 -96 83 -45 352 -178 440 -218 28
-13 97 -44 155 -69 58 -26 114 -51 125 -56 158 -75 664 -257 1004 -360 105
-32 621 -164 676 -173 17 -3 74 -14 128 -26 54 -11 140 -28 190 -36 120 -21
138 -24 162 -29 11 -2 40 -7 65 -10 25 -3 54 -8 65 -10 11 -2 43 -7 70 -10 56
-8 76 -11 190 -26 175 -25 258 -22 430 15 88 19 212 48 275 65 63 17 123 32
133 35 155 37 616 200 794 280 32 14 90 40 128 58 126 57 409 203 525 273 309
182 658 431 884 629 230 202 430 402 577 579 13 16 29 34 34 40 29 31 179 232
229 305 49 73 56 89 56 131 0 93 -53 275 -119 410 -19 40 -5 38 -236 26 -117
-6 -177 5 -221 43 -29 23 -60 86 -69 139 -4 23 -8 42 -9 42 -2 0 -50 -22 -107
-49 -161 -76 -291 -117 -454 -146 -50 -9 -217 -6 -271 4 -111 21 -168 52 -249
136 -84 87 -110 155 -109 290 1 168 60 299 199 441 179 181 418 298 735 359
46 9 194 19 285 19 192 0 311 -15 485 -61 153 -41 140 -42 181 25 20 33 34 64
30 69 -7 11 -265 195 -406 290 -107 72 -455 283 -467 283 -4 0 -8 5 -8 10 0 6
-5 10 -11 10 -11 0 -388 249 -409 270 -3 3 -32 25 -65 49 -131 98 -301 241
-407 343 -15 15 -30 23 -33 19 -8 -14 -207 -108 -276 -130 -313 -102 -491 -38
-706 250 l-66 90 -54 -107 c-68 -135 -99 -180 -163 -237 -147 -133 -332 -167
-520 -97 -157 58 -265 51 -430 -27 -116 -54 -149 -75 -365 -228 -277 -197
-403 -266 -541 -298 -238 -55 -385 99 -385 404 1 150 25 237 123 434 68 138
153 261 325 471 80 98 149 181 152 184 3 3 26 30 51 60 25 30 49 60 55 66 5 6
29 33 51 60 23 27 108 128 189 224 81 96 169 200 194 230 112 133 307 314 400
370 20 12 14 17 -101 80 -96 52 -244 191 -299 280 -134 215 -127 422 22 640
25 36 48 70 52 76 4 7 -16 12 -61 13 -37 1 -81 4 -97 5 -17 2 -70 7 -119 11
-50 4 -97 8 -105 10 -9 2 -45 6 -81 10 -36 4 -67 8 -70 10 -3 2 -25 6 -50 9
-54 7 -42 5 -299 61 -102 23 -369 106 -496 154 -81 31 -112 28 -160 -17 -200
-187 -413 -287 -627 -297 -169 -7 -199 11 -459 266 -118 116 -243 233 -279
260 -160 120 -296 142 -417 66 -95 -60 -284 -147 -355 -163 -48 -11 -65 -14
-112 -20 -121 -16 -226 4 -303 57 -89 61 -130 149 -139 292 -3 51 -7 93 -8 94
0 1 -26 -14 -56 -33 -128 -82 -377 -189 -482 -208 -15 -2 -31 -7 -35 -9 -5 -3
-33 -8 -63 -12 -30 -4 -57 -8 -60 -10 -13 -7 -165 -17 -260 -17 -159 1 -315
20 -470 57 -14 3 -29 7 -35 8 -103 23 -262 127 -317 208 -107 159 -23 329 237
481 258 151 324 204 633 506 341 334 630 477 1020 508 42 3 82 7 89 9 6 2 29
42 51 89 22 47 57 110 77 141 79 118 245 258 411 346 33 17 67 38 76 46 17 15
17 17 0 45 -22 39 -88 93 -187 154 -178 110 -634 409 -645 423 -3 3 -36 31
-75 61 -96 74 -115 92 -219 196 -114 113 -135 138 -218 249 -124 168 -211 335
-276 529 -35 104 -39 110 -87 146 -130 96 -234 126 -342 100z"/>
<path d="M6120 12695 c0 -26 -42 -139 -68 -180 -79 -128 -198 -197 -366 -211
-39 -3 -73 -8 -75 -10 -3 -2 100 -125 129 -154 3 -3 72 -83 155 -179 l149
-173 18 22 c128 158 343 636 318 705 -7 18 -238 195 -254 195 -3 0 -6 -7 -6
-15z"/>
<path d="M7237 9016 c-16 -9 -37 -26 -48 -38 -36 -42 -139 -188 -139 -197 0
-5 24 -16 53 -25 59 -16 134 -36 157 -41 8 -2 49 -11 90 -20 41 -9 89 -18 105
-21 17 -2 41 -6 54 -9 13 -2 46 -7 75 -10 28 -3 67 -8 86 -10 50 -7 301 -6
363 1 84 9 231 36 240 43 15 15 -671 295 -772 316 -112 24 -232 28 -264 11z"/>
<path d="M14970 7304 c-69 -36 -144 -76 -167 -88 l-42 -21 111 -195 c60 -107
112 -197 114 -199 11 -12 92 125 130 220 14 35 32 92 39 127 13 59 12 69 -6
116 -31 79 -43 106 -49 106 -3 0 -61 -30 -130 -66z"/>
<path d="M10941 5968 c-4 -88 -20 -150 -56 -223 -48 -96 -47 -110 23 -178 98
-97 210 -167 338 -211 123 -43 173 -37 279 32 82 54 290 259 323 320 l23 42
-26 10 c-14 6 -30 10 -35 10 -4 0 -120 33 -256 74 -137 40 -258 76 -269 79
-11 3 -87 26 -170 51 -82 25 -155 46 -161 46 -6 0 -11 -23 -13 -52z"/>
<path d="M12980 5738 c-269 -93 -527 -123 -755 -88 -118 19 -120 19 -135 6 -9
-6 -64 -67 -124 -136 -60 -69 -137 -156 -170 -193 -79 -89 -106 -134 -106
-176 0 -70 101 -137 498 -333 136 -67 249 -122 252 -123 3 0 95 -45 205 -100
193 -95 254 -132 377 -223 31 -23 59 -42 62 -42 5 0 15 75 31 255 23 249 24
655 1 881 -11 110 -18 170 -22 175 -1 3 -6 30 -9 60 -4 30 -9 57 -13 60 -4 4
-45 -7 -92 -23z"/>
<path d="M17520 5149 c-41 -10 -117 -40 -169 -65 -51 -25 -130 -56 -175 -69
-74 -22 -95 -23 -246 -20 -91 2 -173 7 -183 10 -21 9 -19 3 36 -110 117 -239
142 -375 80 -436 -34 -33 -82 -41 -137 -22 -22 7 -42 11 -44 8 -3 -3 -7 -27
-8 -53 -8 -167 -32 -255 -88 -327 -97 -125 -190 -161 -432 -165 -24 0 -36 -9
-62 -45 -18 -25 -32 -48 -32 -50 0 -8 -118 -184 -153 -230 -44 -57 -215 -247
-327 -365 -136 -142 -276 -294 -284 -307 -5 -9 -28 -88 -53 -177 -93 -342
-211 -652 -354 -931 l-80 -157 48 33 c114 78 383 276 483 356 149 118 416 342
470 393 9 8 67 62 129 120 192 177 435 424 591 599 41 47 82 92 90 100 97 103
470 575 570 723 14 20 75 110 136 200 127 186 234 355 234 368 0 4 4 10 8 12
7 3 113 180 187 313 63 113 165 304 165 309 0 3 -73 6 -162 5 -128 0 -179 -4
-238 -20z"/>
<path d="M15463 4208 c0 -16 -13 -171 -18 -218 -2 -19 -7 -75 -10 -125 -4 -49
-8 -100 -10 -113 -2 -13 -7 -65 -11 -115 -3 -51 -8 -95 -10 -99 -3 -4 0 -9 5
-13 25 -15 231 126 340 233 84 82 161 174 161 192 0 6 -222 145 -328 205 -9 6
-38 22 -64 38 -53 31 -55 31 -55 15z"/>
<path d="M12591 2989 c-74 -16 -135 -30 -137 -32 -3 -2 121 -186 135 -200 5
-5 33 39 66 104 52 104 78 160 72 158 -1 0 -62 -14 -136 -30z"/>
</g>
</svg>
